<svg width="19" height="26" viewBox="0 0 19 26" fill="none" xmlns="http://www.w3.org/2000/svg">
<path fill-rule="evenodd" clip-rule="evenodd" d="M10.3231 26L7.80122 24.7389C4.41497 22.4127 0 18.6155 0 13.6717C0 8.72788 3.49552 2.96657 7.80122 0.813719C9.75958 -0.165256 11.5504 -0.230496 12.9208 0.454909L15.4426 1.71604C14.0722 1.03063 12.2814 1.09587 10.3231 2.07485C6.01737 4.2277 2.52185 9.98901 2.52185 14.9328C2.52185 19.8766 6.93641 23.6735 10.3231 26Z" fill="#8C6F0D"/>
<path fill-rule="evenodd" clip-rule="evenodd" d="M10.3231 2.07477C14.6288 -0.0780734 18.1243 2.18812 18.1243 7.13192C18.1243 12.0757 13.7097 20.2875 10.3231 25.9999C6.93682 23.6738 2.52185 19.8765 2.52185 14.9327C2.52185 9.98894 6.01737 4.22762 10.3231 2.07477ZM10.3231 5.154C13.1487 3.74119 15.4426 5.2282 15.4426 8.47256C15.4426 11.7169 13.1487 15.4979 10.3231 16.9107C7.49746 18.3235 5.20353 16.8365 5.20353 13.5921C5.20353 10.3477 7.49746 6.5668 10.3231 5.154Z" fill="#F5C730"/>
<path fill-rule="evenodd" clip-rule="evenodd" d="M12.2402 4.62237C14.117 4.55591 15.4425 6.00663 15.4425 8.47262C15.4425 11.717 13.1486 15.4979 10.323 16.9107C8.42661 17.8587 6.76998 17.5011 5.88519 16.1821C6.47763 16.1613 7.12471 15.9892 7.80237 15.6504C10.628 14.2376 12.9219 10.4567 12.9219 7.21231C12.9219 6.14526 12.6736 5.26822 12.2402 4.62196V4.62237Z" fill="#8C6F0D"/>
</svg>
